<svg xmlns="http://www.w3.org/2000/svg" width="280" height="155" viewBox="0 0 280 155">
<g>
<path d="M 120.60 150.93 C91.99,146.98 70.20,138.47 47.43,122.33 C28.90,109.21 5.00,84.29 5.00,78.09 C5.00,74.72 13.21,64.82 27.13,51.42 C56.92,22.73 90.25,7.48 128.36,5.10 C178.00,1.99 221.95,20.66 260.53,61.24 C271.86,73.15 273.86,76.52 272.12,80.68 C270.12,85.43 252.98,104.01 242.18,113.13 C218.57,133.07 196.20,144.34 170.90,149.04 C157.85,151.47 131.65,152.45 120.60,150.93 ZM 161.51 129.47 C180.79,126.61 200.52,118.82 217.78,107.26 C226.28,101.57 241.30,88.62 245.00,83.79 L 247.08 81.08 L 241.29 79.47 C238.11,78.59 234.82,77.63 234.00,77.33 C233.18,77.04 227.55,75.77 221.50,74.51 C215.45,73.25 204.65,70.88 197.50,69.24 C190.35,67.60 183.15,66.01 181.50,65.70 L 178.50 65.15 L 178.50 76.82 C178.50,87.55 178.28,88.96 175.74,94.12 C170.22,105.35 162.00,112.34 149.88,116.12 C127.76,123.00 103.92,108.40 98.88,84.89 C97.83,79.96 98.18,70.31 99.54,66.76 C100.38,64.57 96.00,65.03 78.50,68.97 C70.80,70.70 59.55,73.18 53.50,74.47 C47.45,75.77 39.39,77.61 35.59,78.58 L 28.68 80.32 L 38.09 89.43 C53.38,104.22 66.40,113.16 83.00,120.26 C92.42,124.29 108.21,128.64 118.08,129.91 C128.89,131.31 150.61,131.09 161.51,129.47 Z" fill="rgba(0,0,0,1)"/>
</g>
</svg>