<svg xmlns="http://www.w3.org/2000/svg" width="280" height="155" viewBox="0 0 280 155">
<g>
<path d="M 118.76 151.53 C83.71,146.51 55.25,131.33 27.40,102.82 C13.91,88.99 7.00,79.88 7.00,75.88 C7.00,71.59 24.29,52.80 41.28,38.63 C63.63,19.99 94.24,6.36 121.44,2.95 C133.29,1.47 155.14,2.22 166.05,4.50 C200.14,11.61 229.05,27.98 256.47,55.71 C270.75,70.14 273.42,73.83 272.53,77.86 C271.08,84.47 247.51,109.03 230.09,122.07 C219.05,130.33 197.21,141.93 185.02,145.99 C167.51,151.84 138.05,154.30 118.76,151.53 ZM 153.26 132.06 C157.43,131.00 162.79,129.13 165.17,127.91 C186.04,117.27 198.54,93.63 195.24,71.02 C190.22,36.53 162.76,16.54 128.00,22.04 C112.70,24.47 96.94,36.12 90.18,50.00 C86.38,57.79 83.00,70.53 83.00,77.02 C83.00,95.15 92.63,114.69 106.34,124.38 C111.89,128.31 121.33,132.19 128.00,133.31 C134.70,134.43 146.22,133.86 153.26,132.06 ZM 199.99 122.89 C211.57,116.58 222.64,108.86 232.50,100.23 C240.98,92.81 254.00,79.07 254.00,77.53 C254.00,74.30 232.08,54.16 217.94,44.41 C209.62,38.67 194.26,30.00 192.41,30.00 C191.98,30.00 192.79,31.24 194.22,32.75 C208.31,47.66 213.65,79.27 205.90,101.80 C203.54,108.64 197.17,119.58 193.59,122.92 C191.05,125.31 190.27,127.01 191.75,126.99 C192.16,126.98 195.87,125.13 199.99,122.89 ZM 85.02 123.03 C83.86,121.40 82.49,119.80 81.98,119.49 C79.77,118.12 73.83,105.67 72.03,98.62 C66.17,75.71 70.35,50.57 82.73,34.29 L 85.95 30.05 L 80.73 32.36 C67.04,38.41 50.22,50.74 34.59,66.18 L 23.67 76.96 L 28.61 82.23 C31.33,85.13 35.34,89.47 37.52,91.88 C42.11,96.93 55.20,108.03 62.50,113.06 C67.60,116.57 84.84,125.91 86.32,125.97 C86.77,125.99 86.18,124.66 85.02,123.03 ZM 133.05 122.85 C123.83,121.75 115.42,117.30 108.57,109.90 C105.49,106.57 102.07,102.09 100.98,99.95 C94.32,86.91 94.38,69.05 101.14,55.39 C106.94,43.66 121.55,33.76 135.03,32.42 C157.74,30.16 179.95,49.09 181.70,72.18 C182.72,85.64 178.78,96.13 169.40,105.01 C163.62,110.47 160.93,111.19 159.17,107.75 C158.53,106.51 157.47,104.75 156.82,103.83 C155.81,102.44 156.24,101.48 159.42,97.95 C165.07,91.70 168.42,83.75 168.46,76.49 C168.53,64.80 159.83,52.17 149.21,48.55 C134.29,43.47 119.63,49.84 112.44,64.54 C110.00,69.53 109.53,71.70 109.56,77.99 C109.58,84.37 110.07,86.51 112.81,92.18 C119.71,106.48 132.44,113.11 148.72,110.89 C155.97,109.90 159.35,110.57 161.23,113.40 C162.38,115.11 162.17,115.77 159.77,118.00 C155.50,121.98 143.71,124.12 133.05,122.85 ZM 133.37 94.91 C129.13,93.68 123.37,87.07 121.95,81.82 C117.85,66.60 130.86,52.88 145.57,56.90 C155.48,59.61 162.41,72.45 158.94,81.68 C154.72,92.95 144.62,98.17 133.37,94.91 Z" fill="rgba(0,0,0,1)"/>
</g>
</svg>