<svg xmlns="http://www.w3.org/2000/svg" width="280" height="155" viewBox="0 0 280 155">
<g>
<path d="M 121.00 148.97 C89.91,144.68 64.05,133.46 38.50,113.20 C29.20,105.82 10.49,86.69 7.37,81.37 C4.99,77.30 4.95,77.00 6.50,73.99 C9.49,68.21 30.24,47.94 43.00,38.33 C70.31,17.76 99.64,7.00 132.61,5.45 C183.14,3.08 226.15,21.60 264.47,62.22 C269.74,67.82 274.33,73.47 274.66,74.80 C275.00,76.12 274.64,78.48 273.88,80.04 C270.03,87.94 243.57,112.95 227.86,123.55 C210.89,134.99 188.70,144.14 169.50,147.59 C159.04,149.48 130.53,150.29 121.00,148.97 ZM 166.17 124.58 C183.18,121.52 203.77,113.26 218.00,103.78 C224.26,99.61 237.33,89.00 236.82,88.49 C236.64,88.31 231.09,89.43 224.49,91.00 C204.03,95.84 181.74,100.17 179.81,99.66 C178.64,99.35 177.57,99.94 176.85,101.28 C174.67,105.35 166.65,113.06 161.55,115.97 C148.00,123.72 130.68,123.85 116.83,116.31 C112.48,113.94 102.81,104.89 100.43,100.96 C99.86,100.02 96.61,98.94 92.06,98.18 C86.07,97.18 49.79,88.73 41.50,86.40 C38.84,85.65 47.18,92.98 57.39,100.36 C66.56,106.98 85.28,116.67 95.00,119.82 C103.26,122.50 114.15,124.93 122.77,126.02 C132.21,127.22 155.85,126.43 166.17,124.58 Z" fill="rgba(0,0,0,1)"/>
</g>
</svg>