<svg xmlns="http://www.w3.org/2000/svg" width="280" height="155" viewBox="0 0 280 155">
<g>
<path d="M 116.50 149.10 C101.17,146.97 95.92,145.69 86.50,141.74 C82.65,140.13 78.42,138.56 77.10,138.26 C75.78,137.96 72.18,136.21 69.10,134.38 C66.02,132.55 61.70,130.14 59.50,129.04 C54.66,126.61 44.28,119.34 37.58,113.66 C30.04,107.28 11.07,87.80 10.43,85.79 C10.12,84.80 9.50,84.00 9.05,84.00 C8.60,84.00 7.47,82.40 6.54,80.45 C4.87,76.92 4.88,76.87 8.05,71.92 C12.79,64.53 35.18,42.25 42.50,37.64 C44.15,36.60 46.48,34.77 47.68,33.58 C48.88,32.39 51.12,30.76 52.66,29.96 C54.20,29.16 58.39,26.59 61.98,24.25 C65.57,21.92 69.03,20.00 69.67,20.00 C70.31,20.00 73.83,18.41 77.49,16.47 C83.36,13.35 95.86,9.60 112.50,5.96 C130.48,2.03 154.74,3.00 176.75,8.54 C190.35,11.97 193.02,12.92 202.23,17.60 C204.83,18.92 207.56,20.00 208.28,20.00 C209.00,20.00 212.65,22.01 216.39,24.46 C220.12,26.91 223.92,29.16 224.84,29.45 C225.75,29.75 228.30,31.61 230.50,33.59 C232.70,35.58 235.35,37.53 236.40,37.93 C238.55,38.75 266.13,64.61 267.56,67.15 C268.08,68.06 269.79,70.42 271.36,72.39 C274.78,76.68 274.45,79.46 270.00,83.66 C268.35,85.22 267.00,86.92 267.00,87.43 C267.00,90.08 236.31,119.13 232.10,120.47 C230.94,120.84 230.00,121.51 230.00,121.96 C230.00,122.82 225.70,125.63 213.50,132.77 C207.34,136.37 190.11,143.57 181.50,146.13 C167.10,150.41 136.14,151.82 116.50,149.10 ZM 157.50 129.03 C163.81,128.50 171.91,127.05 176.50,125.63 C189.10,121.75 201.47,117.03 201.83,115.97 C202.02,115.44 202.53,115.00 202.98,115.00 C204.56,115.00 219.62,106.08 221.45,104.06 C222.47,102.93 223.81,102.00 224.43,102.00 C226.17,102.00 244.78,84.53 248.28,79.60 L 250.39 76.64 L 240.54 67.27 C235.13,62.11 228.74,56.54 226.35,54.89 C223.95,53.25 220.81,50.80 219.35,49.45 C217.90,48.10 215.93,47.00 214.98,47.00 C214.02,47.00 212.66,46.29 211.94,45.42 C210.60,43.81 202.90,39.53 197.50,37.40 C195.85,36.75 191.11,34.87 186.97,33.22 C182.83,31.57 174.28,29.17 167.97,27.89 C152.97,24.84 128.40,24.57 114.00,27.30 C103.52,29.29 89.42,33.49 84.04,36.23 C82.14,37.20 80.09,38.00 79.49,38.00 C78.90,38.00 75.18,39.99 71.23,42.42 C67.29,44.86 63.26,47.11 62.28,47.43 C61.30,47.75 58.47,49.81 56.00,51.99 C53.53,54.18 51.10,55.98 50.62,55.98 C50.14,55.99 47.74,57.91 45.30,60.25 C34.52,70.56 28.00,77.17 28.00,77.78 C28.00,79.23 48.02,97.65 56.00,103.55 C70.17,114.02 83.73,120.41 103.88,126.13 C116.16,129.61 137.24,130.75 157.50,129.03 ZM 129.50 115.81 C120.85,112.84 115.12,109.40 110.18,104.21 C103.94,97.65 102.89,95.77 100.50,86.76 C98.48,79.15 98.89,69.70 101.58,62.02 C105.26,51.51 118.70,39.93 129.59,37.88 C132.85,37.27 139.22,37.03 143.80,37.34 C150.66,37.81 153.06,38.46 157.64,41.08 C167.46,46.70 173.58,53.74 176.68,63.00 C179.78,72.25 180.24,76.18 179.01,82.95 C175.98,99.64 165.17,111.32 148.50,115.89 C143.58,117.24 133.54,117.20 129.50,115.81 Z" fill="rgba(0,0,0,1)"/>
</g>
</svg>