<svg xmlns="http://www.w3.org/2000/svg" width="280" height="155" viewBox="0 0 280 155">
<g>
<path d="M 126.00 150.53 C125.18,150.34 120.46,149.62 115.51,148.95 C82.32,144.42 50.21,127.29 22.15,99.14 C15.91,92.88 9.53,85.76 7.98,83.31 C4.04,77.10 4.94,75.24 18.68,60.99 C52.08,26.34 89.41,8.48 132.61,6.45 C161.08,5.12 183.99,9.63 208.50,21.39 C222.11,27.92 231.78,34.04 243.74,43.71 C254.70,52.57 273.79,72.32 274.63,75.67 C275.72,80.00 272.66,84.38 259.03,98.03 C230.06,127.01 202.63,142.50 169.50,148.57 C161.42,150.05 129.92,151.47 126.00,150.53 Z" fill="rgba(0,0,0,1)"/>
</g>
</svg>