<svg xmlns="http://www.w3.org/2000/svg" width="500" height="499" viewBox="0 0 500 499">
<g>
<path d="M 224.50 453.30 C217.26,452.34 210.64,449.62 202.37,444.20 C197.49,441.01 191.58,437.63 189.23,436.70 C182.55,434.04 170.62,434.51 158.00,437.93 C115.41,449.45 108.62,450.64 90.61,449.71 C73.63,448.83 50.66,442.48 49.26,438.27 C49.04,437.61 50.99,435.59 53.61,433.78 C69.35,422.91 91.77,403.23 94.60,397.80 C98.02,391.21 94.99,385.75 85.50,381.42 C74.04,376.20 59.72,376.11 45.24,381.19 C40.38,382.89 38.71,383.11 37.78,382.18 C36.05,380.45 38.07,373.44 43.46,362.50 C51.29,346.62 62.56,336.52 86.50,323.95 C105.51,313.96 112.60,308.61 118.13,300.05 C122.01,294.04 121.99,289.19 118.05,284.71 C114.71,280.90 110.96,279.11 99.51,275.84 C89.13,272.88 84.20,268.33 81.69,259.40 C79.53,251.69 79.56,249.82 82.11,235.96 C86.28,213.24 82.27,203.55 68.21,202.29 C60.83,201.64 53.18,204.27 44.54,210.44 C37.80,215.24 35.32,215.99 34.35,213.48 C33.33,210.82 37.08,192.94 41.48,179.49 C48.32,158.57 54.84,147.22 66.33,136.22 C74.09,128.79 81.01,125.36 92.16,123.41 C106.10,120.98 115.23,123.59 135.29,135.75 C149.36,144.27 156.67,146.54 167.42,145.73 C177.96,144.93 185.97,140.93 193.81,132.55 C201.41,124.42 205.89,116.45 213.51,97.50 C222.05,76.26 225.78,70.01 235.90,59.97 C253.13,42.89 275.30,35.68 295.76,40.50 C313.30,44.64 326.60,53.56 335.98,67.48 C348.39,85.89 352.06,99.82 353.99,135.85 C355.67,167.29 356.96,171.61 366.44,177.47 C371.05,180.32 371.93,180.49 380.92,180.41 C388.93,180.33 392.06,179.79 400.00,177.10 C417.12,171.28 427.65,172.07 436.22,179.82 C448.92,191.29 453.14,207.78 449.11,230.18 C445.16,252.15 437.99,267.66 425.85,280.48 C417.31,289.50 411.23,293.24 395.79,298.99 C380.15,304.81 377.12,308.69 358.26,347.00 C340.38,383.32 329.46,399.15 309.02,418.36 C285.13,440.82 247.55,456.36 224.50,453.30 ZM 93.60 425.08 C107.36,422.45 117.00,419.08 133.50,411.10 C181.75,387.77 244.73,329.91 285.49,271.48 C291.40,263.00 303.70,243.06 307.01,236.58 C308.29,234.06 308.54,233.93 308.80,235.65 C309.16,238.10 301.47,261.61 296.75,272.50 C279.85,311.46 249.86,356.41 217.02,392.00 C205.50,404.48 202.63,407.97 203.31,408.65 C203.63,408.96 208.52,406.98 214.19,404.25 C245.54,389.15 278.59,354.46 300.38,313.74 C310.72,294.43 323.08,261.35 328.46,238.59 C335.67,208.06 337.50,188.60 337.48,142.50 C337.46,107.74 337.33,105.04 335.32,97.94 C329.21,76.36 317.18,61.92 300.25,55.82 C292.64,53.08 277.13,52.88 268.50,55.40 C257.55,58.61 247.98,65.28 240.66,74.80 C235.01,82.15 231.73,88.70 226.28,103.50 C219.36,122.30 213.80,132.01 204.49,141.52 C188.26,158.11 168.61,163.36 148.50,156.47 C141.95,154.23 134.45,150.42 123.45,143.74 C111.67,136.58 108.65,135.68 98.13,136.18 C87.80,136.68 81.97,139.38 73.97,147.39 C66.15,155.22 54.00,177.14 54.00,183.42 C54.00,185.53 54.44,185.43 57.50,182.58 C61.33,179.04 68.18,176.11 74.35,175.39 C88.85,173.69 102.34,182.50 106.56,196.41 C107.41,199.21 108.45,208.10 108.88,216.17 C109.73,232.03 110.82,235.41 115.46,236.58 C116.80,236.92 119.61,236.64 121.70,235.96 C131.08,232.93 152.55,217.91 167.20,204.13 L 175.08 196.72 L 172.92 202.61 C167.51,217.34 153.60,241.95 143.70,254.27 C134.47,265.77 140.51,261.78 155.68,246.35 C176.35,225.33 190.57,205.15 207.01,173.50 L 212.21 163.50 L 211.53 168.50 C210.35,177.32 203.01,203.14 198.32,215.00 C184.95,248.81 165.83,278.34 142.01,302.00 C129.47,314.45 120.60,321.21 103.50,331.36 C81.06,344.67 72.08,350.38 67.84,354.04 C62.99,358.24 63.03,359.58 67.97,357.86 C70.31,357.04 74.73,356.97 83.38,357.61 C90.05,358.10 99.79,358.47 105.02,358.42 C113.99,358.35 114.96,358.13 121.52,354.68 C138.56,345.72 167.24,320.42 187.25,296.70 C194.30,288.35 215.24,260.43 217.03,257.00 C217.75,255.63 218.51,255.04 218.73,255.69 C219.56,258.19 201.50,295.54 191.02,313.00 C168.64,350.28 133.95,386.59 89.75,419.00 C77.62,427.89 77.76,428.10 93.60,425.08 ZM 287.50 398.14 C299.57,389.71 311.02,377.21 319.22,363.50 C333.93,338.93 341.09,316.58 345.96,280.06 C348.36,262.09 348.23,264.00 347.00,264.00 C346.45,264.00 346.00,264.91 346.00,266.01 C346.00,267.12 343.94,273.53 341.42,280.26 C319.63,338.52 304.05,369.02 282.57,395.45 C278.40,400.57 275.00,405.06 275.00,405.42 C275.00,406.43 278.75,404.24 287.50,398.14 ZM 377.18 274.54 C389.70,257.39 400.31,238.78 406.61,222.93 C409.98,214.44 411.67,211.28 412.43,212.04 C413.09,212.70 413.45,218.11 413.37,226.30 C413.24,240.30 412.24,245.97 406.87,263.25 C405.18,268.69 404.04,273.38 404.34,273.67 C404.63,273.96 407.47,272.92 410.65,271.34 C426.49,263.50 438.25,236.93 436.61,212.70 C435.64,198.32 430.49,189.72 421.16,186.93 C416.32,185.48 410.48,186.62 398.18,191.43 C385.91,196.23 380.77,197.36 374.34,196.70 L 368.80 196.12 L 369.38 199.31 C372.63,217.27 372.52,251.91 369.15,273.23 C368.13,279.69 367.55,285.21 367.85,285.51 C368.42,286.08 370.82,283.26 377.18,274.54 ZM 264.60 214.96 C251.54,211.05 249.38,189.61 259.77,166.91 C268.03,148.86 279.76,140.99 289.05,147.25 C295.77,151.78 298.18,159.60 296.84,172.54 C294.90,191.30 285.03,208.90 273.52,214.13 C269.05,216.16 268.72,216.19 264.60,214.96 ZM 311.05 142.73 C309.70,142.05 307.15,139.59 305.38,137.28 C297.55,127.01 295.23,112.03 300.00,102.50 L 302.50 97.50 L 308.21 97.52 C313.15,97.54 314.33,97.94 316.99,100.49 C324.17,107.37 328.39,123.69 325.54,133.52 C322.95,142.41 317.40,145.94 311.05,142.73 ZM 253.27 136.47 C251.13,135.57 249.85,134.07 248.98,131.45 C244.01,116.37 260.62,93.22 275.73,94.19 C279.85,94.46 280.67,94.89 281.86,97.38 C282.62,98.97 283.27,102.37 283.31,104.95 C283.56,121.56 264.74,141.30 253.27,136.47 Z" fill="rgba(0,0,0,1)"/>
</g>
</svg>