<svg xmlns="http://www.w3.org/2000/svg" width="497" height="487" viewBox="0 0 497 487">
<g>
<path d="M 103.23 480.25 L 5.96 479.99 L 6.23 403.75 L 6.50 327.50 L 10.37 320.00 C19.39,302.50 33.84,289.52 53.50,281.24 C60.21,278.42 62.44,276.84 67.33,271.44 C79.43,258.08 99.86,242.68 117.80,233.42 C126.63,228.86 127.08,228.47 126.80,225.63 C126.57,223.39 125.38,221.88 122.00,219.54 C118.37,217.03 116.63,214.68 113.00,207.36 C110.53,202.37 106.37,194.93 103.76,190.82 C96.08,178.74 94.70,173.82 94.40,157.42 C94.20,146.53 93.69,142.00 92.14,137.42 C87.92,124.86 87.71,102.27 91.69,86.10 L 93.50 78.70 L 106.60 91.60 C113.80,98.69 122.31,107.58 125.51,111.34 C131.89,118.84 132.35,118.79 133.31,110.50 C134.83,97.41 142.67,80.64 153.63,67.00 C171.59,44.66 202.83,32.01 240.00,32.01 C274.02,32.01 303.20,42.90 322.06,62.64 C336.29,77.53 341.23,88.01 346.59,114.75 C346.84,115.99 347.49,117.00 348.04,117.00 C348.60,117.00 357.31,108.56 367.41,98.25 L 385.78 79.50 L 387.43 85.00 C391.48,98.50 391.97,121.98 388.51,136.00 C387.62,139.57 386.52,149.93 386.07,159.00 C385.11,177.94 384.38,180.31 375.98,191.50 C373.09,195.35 368.83,202.55 366.51,207.51 C362.12,216.88 361.07,218.20 355.81,220.88 C352.14,222.76 350.44,225.11 351.25,227.21 C351.56,228.03 357.82,231.66 365.16,235.29 C372.50,238.91 381.30,243.83 384.72,246.22 C393.27,252.18 405.38,263.13 412.53,271.37 C417.19,276.72 419.92,278.87 424.95,281.16 C428.49,282.77 432.99,284.83 434.95,285.73 C449.81,292.60 463.74,308.14 470.79,325.74 L 473.50 332.50 L 473.50 406.50 L 473.50 480.50 L 337.00 480.51 C261.92,480.51 156.73,480.40 103.23,480.25 ZM 181.50 456.92 C196.63,455.12 215.02,448.16 220.32,442.23 C222.37,439.93 222.74,440.30 213.69,435.49 C210.46,433.77 207.74,431.98 207.65,431.51 C207.57,431.04 209.98,430.16 213.02,429.56 C230.92,425.98 230.11,417.10 210.80,405.30 C206.24,402.50 201.64,399.27 200.60,398.11 L 198.69 396.00 L 203.10 395.82 C205.52,395.72 209.07,395.75 211.00,395.88 C214.24,396.11 214.36,396.02 212.58,394.70 C211.52,393.92 210.54,392.50 210.40,391.55 C210.07,389.24 201.02,379.69 193.00,373.18 C189.43,370.28 179.07,363.13 170.00,357.30 C147.40,342.78 136.61,334.61 124.08,322.54 C109.22,308.21 102.13,305.00 85.32,305.00 C80.19,305.00 76.00,304.59 76.00,304.09 C76.00,303.59 78.81,300.94 82.25,298.20 C97.24,286.25 100.78,283.05 107.19,275.64 C113.92,267.86 123.06,251.85 121.14,251.21 C119.72,250.74 110.61,255.53 102.39,261.08 C92.04,268.05 81.83,277.37 74.41,286.58 C68.51,293.91 67.37,294.83 62.20,296.45 C49.66,300.38 41.85,304.93 33.93,312.92 C27.68,319.23 25.80,321.94 23.07,328.48 C17.57,341.71 17.34,351.01 22.15,366.00 C25.43,376.18 30.04,383.66 39.54,394.18 C43.90,399.00 43.41,399.12 57.99,389.50 C73.90,379.02 90.48,364.58 99.15,353.66 C104.70,346.68 104.34,342.30 97.63,335.18 L 94.50 331.85 L 97.50 332.56 C107.96,335.03 120.35,341.08 129.82,348.35 C132.95,350.75 140.90,356.52 147.50,361.18 C164.70,373.32 170.11,377.46 169.17,377.78 C168.72,377.93 159.61,375.84 148.92,373.14 C138.24,370.45 127.66,367.93 125.42,367.56 L 121.34 366.88 L 108.92 381.13 C91.62,400.98 92.54,398.46 101.17,402.43 C111.10,406.99 124.36,411.57 132.11,413.12 C138.39,414.37 138.44,414.40 135.00,415.16 C133.07,415.59 123.51,416.25 113.75,416.63 C103.99,417.01 96.00,417.48 96.00,417.69 C96.00,417.90 97.18,420.41 98.62,423.28 C102.43,430.86 116.74,444.63 125.50,449.15 C133.95,453.50 140.58,455.73 148.54,456.89 C157.15,458.14 171.13,458.16 181.50,456.92 ZM 261.24 456.01 C258.94,453.87 257.01,448.26 257.01,443.70 C256.99,437.01 262.87,430.93 275.50,424.59 L 284.50 420.07 L 276.62 420.04 C272.28,420.02 265.86,420.53 262.34,421.18 C253.74,422.76 252.98,421.93 256.07,414.32 C258.42,408.55 263.93,402.09 272.50,395.09 L 276.50 391.82 L 272.00 392.50 C252.45,395.42 240.86,414.52 245.38,436.38 C246.25,440.58 247.70,445.48 248.59,447.26 C250.85,451.73 255.02,456.00 257.13,456.00 C258.09,456.00 259.16,456.45 259.50,457.00 C259.84,457.55 260.85,458.00 261.75,458.00 C263.08,458.00 262.99,457.64 261.24,456.01 ZM 235.03 357.49 L 239.99 354.97 L 245.96 356.99 C249.25,358.09 253.77,359.00 256.00,359.00 C260.99,359.00 266.80,356.69 267.69,354.36 C268.65,351.86 259.28,343.76 250.32,339.32 C243.72,336.05 242.60,335.80 236.32,336.23 C232.57,336.48 228.60,337.05 227.50,337.49 C225.85,338.15 225.72,338.06 226.75,336.95 C227.44,336.21 228.00,334.74 228.00,333.68 C228.00,331.26 226.46,331.60 214.50,336.63 C207.23,339.70 204.25,340.43 199.00,340.45 C191.92,340.47 187.00,338.24 187.00,335.01 C187.00,333.51 188.22,333.18 195.25,332.77 C200.82,332.45 205.94,331.39 211.00,329.52 C232.06,321.75 237.01,320.79 247.02,322.51 C250.58,323.12 258.24,325.50 264.03,327.80 C269.82,330.10 276.64,332.26 279.20,332.61 C295.10,334.79 304.18,325.70 305.66,306.10 C306.18,299.27 304.71,288.96 303.41,290.26 C303.16,290.51 302.32,294.63 301.54,299.40 C299.26,313.52 293.94,320.00 284.65,320.00 C282.70,320.00 275.02,318.42 267.57,316.50 C249.01,311.70 237.28,311.61 219.69,316.14 C204.04,320.16 194.64,321.84 191.22,321.21 C184.06,319.90 180.41,314.06 176.70,298.00 L 174.28 287.50 L 173.50 296.45 C172.57,307.20 174.13,321.59 177.06,329.44 C179.97,337.20 185.89,342.94 194.52,346.39 C198.36,347.92 203.88,350.96 206.80,353.15 C213.98,358.55 217.48,359.91 224.28,359.96 C228.53,359.99 231.38,359.33 235.03,357.49 ZM 350.82 337.32 C357.39,333.55 378.69,319.29 383.58,315.40 C385.82,313.61 389.55,311.16 391.87,309.95 C394.19,308.74 395.90,307.57 395.68,307.34 C395.45,307.12 393.15,307.41 390.57,307.99 C380.44,310.25 367.09,318.91 353.13,332.25 C348.67,336.51 345.27,340.00 345.58,340.00 C345.89,340.00 348.25,338.79 350.82,337.32 ZM 202.65 308.94 C204.45,308.26 205.01,307.63 204.25,307.15 C202.71,306.20 200.64,300.28 198.51,290.68 C197.57,286.45 196.42,282.76 195.95,282.47 C194.89,281.81 193.35,287.32 191.91,296.99 C190.43,306.92 191.50,310.00 196.41,310.00 C198.31,310.00 201.12,309.52 202.65,308.94 ZM 286.90 308.08 C287.68,307.59 288.27,305.88 288.23,304.27 C288.10,299.75 285.23,285.55 283.70,281.83 L 282.32 278.50 L 280.73 284.00 C278.71,291.02 277.00,300.44 277.00,304.62 C277.00,307.54 277.33,307.91 280.25,308.28 C282.04,308.50 283.95,308.75 284.50,308.82 C285.05,308.90 286.13,308.57 286.90,308.08 ZM 219.46 305.65 C220.92,304.59 221.18,303.50 220.70,300.54 C220.06,296.59 217.57,292.00 216.07,292.00 C214.73,292.00 211.00,300.27 211.00,303.23 C211.00,304.66 210.44,306.06 209.75,306.34 C209.06,306.62 210.55,306.88 213.06,306.92 C215.57,306.96 218.45,306.39 219.46,305.65 ZM 267.32 304.60 C267.62,303.84 266.22,300.60 264.23,297.41 L 260.60 291.61 L 259.25 294.91 C258.51,296.73 257.66,299.46 257.35,300.99 C256.88,303.36 257.21,303.92 259.65,304.80 C263.74,306.29 266.70,306.22 267.32,304.60 ZM 237.62 303.54 C238.82,300.42 234.70,292.00 231.97,292.00 C230.69,292.00 229.00,297.16 229.00,301.05 C229.00,305.00 229.00,305.00 233.03,305.00 C235.64,305.00 237.26,304.49 237.62,303.54 ZM 251.00 301.87 C251.00,300.70 250.01,298.13 248.80,296.18 L 246.60 292.62 L 245.35 295.56 C244.65,297.18 244.07,299.74 244.05,301.25 C244.00,303.73 244.34,304.00 247.50,304.00 C250.41,304.00 251.00,303.64 251.00,301.87 ZM 164.42 255.00 C165.69,246.98 170.05,232.85 173.17,226.60 C174.84,223.25 178.75,217.19 181.86,213.14 C184.96,209.09 188.33,204.48 189.34,202.89 C190.99,200.30 191.01,200.00 189.55,200.00 C188.65,200.00 186.16,200.90 184.00,202.00 C178.93,204.58 175.96,204.52 171.61,201.75 C168.11,199.52 166.68,197.28 169.43,198.34 C171.23,199.02 182.20,194.86 182.17,193.50 C182.15,192.95 179.43,191.78 176.11,190.90 C168.16,188.79 162.02,183.73 158.23,176.14 C155.63,170.94 155.17,170.49 154.15,172.13 C153.52,173.14 153.00,174.69 153.00,175.57 C153.00,178.15 150.71,176.66 147.61,172.06 C143.93,166.61 143.43,167.39 141.36,181.76 C139.25,196.36 140.09,199.45 148.36,207.50 C151.75,210.80 155.98,214.70 157.76,216.16 L 161.00 218.82 L 161.00 230.87 C161.00,241.38 158.24,262.09 156.63,263.70 C155.79,264.54 151.55,249.53 148.38,234.53 C146.90,227.48 146.59,226.85 145.69,229.03 C144.08,232.97 144.54,257.65 146.36,264.74 C148.45,272.92 153.11,283.09 158.28,290.77 L 162.50 297.04 L 163.10 278.27 C163.43,267.95 164.02,257.48 164.42,255.00 ZM 205.66 270.92 C205.74,270.14 206.60,264.04 207.56,257.37 C208.52,250.70 209.02,244.51 208.68,243.62 C207.78,241.27 200.81,241.45 198.61,243.88 C194.83,248.05 195.47,256.02 200.48,267.36 C202.87,272.76 205.27,274.41 205.66,270.92 ZM 283.20 253.91 C283.21,247.59 281.31,243.09 277.59,240.65 C275.21,239.09 275.01,239.11 274.04,240.93 C271.90,244.92 273.48,258.20 277.67,271.50 C278.71,274.78 283.18,260.52 283.20,253.91 ZM 224.54 253.75 C227.87,246.59 227.73,245.36 223.48,244.56 C219.33,243.78 218.00,244.40 218.00,247.12 C218.00,248.22 218.34,248.91 218.75,248.65 C219.17,248.40 219.58,250.16 219.68,252.56 C219.84,256.71 220.52,259.00 221.61,259.00 C221.87,259.00 223.19,256.64 224.54,253.75 ZM 259.05 253.23 C259.67,251.16 260.03,248.12 259.84,246.48 C259.55,243.91 259.09,243.50 256.50,243.50 C253.69,243.50 253.51,243.73 253.61,247.21 C253.73,251.28 255.76,257.00 257.08,257.00 C257.54,257.00 258.43,255.30 259.05,253.23 ZM 179.09 249.75 C184.48,238.94 191.35,233.46 200.91,232.32 C204.46,231.90 208.86,232.58 218.04,234.97 C236.89,239.87 249.20,239.15 265.50,232.20 C274.10,228.53 282.20,228.55 287.82,232.26 C292.81,235.56 298.20,242.61 301.01,249.50 L 303.05 254.50 L 302.70 248.86 C302.45,244.78 301.18,240.77 298.11,234.36 C290.90,219.33 284.17,212.00 277.58,212.00 C274.55,212.00 260.23,216.57 258.34,218.13 C256.38,219.76 256.55,215.16 258.53,212.97 C260.16,211.17 262.12,205.45 261.37,204.70 C260.89,204.22 247.59,207.52 245.97,208.52 C242.26,210.81 250.29,198.61 255.32,194.31 C256.73,193.10 259.47,191.81 261.41,191.45 C264.48,190.88 265.35,191.20 268.05,193.89 C269.76,195.60 271.38,197.00 271.66,197.00 C272.40,197.00 271.08,189.02 269.80,185.70 C268.39,182.05 263.79,179.67 259.83,180.54 C256.60,181.25 249.00,188.32 249.00,190.62 C249.00,191.38 248.57,192.00 248.04,192.00 C246.20,192.00 245.14,188.37 245.72,184.06 C246.22,180.30 245.98,179.49 243.90,177.89 C240.23,175.07 236.17,175.43 234.93,178.67 C234.38,180.14 234.12,181.87 234.37,182.51 C234.61,183.16 234.43,184.30 233.97,185.05 C233.28,186.17 232.32,186.02 228.70,184.21 C220.12,179.92 211.67,182.37 208.60,190.04 C206.77,194.63 206.56,197.00 208.00,197.00 C208.55,197.00 209.00,197.79 209.01,198.75 C209.01,200.05 209.48,199.79 210.84,197.73 C216.50,189.15 225.50,190.41 232.02,200.69 C236.51,207.77 235.64,211.24 230.32,207.51 C229.15,206.69 225.88,205.52 223.06,204.92 C218.89,204.02 217.51,204.09 215.71,205.26 C214.50,206.06 211.25,207.04 208.50,207.44 C202.14,208.38 198.39,210.70 192.03,217.66 C181.72,228.94 177.96,236.47 176.24,249.27 C175.75,252.97 175.48,256.00 175.66,256.00 C175.83,256.00 177.37,253.19 179.09,249.75 ZM 242.71 253.50 C244.40,250.73 244.29,246.49 242.51,245.00 C240.33,243.20 236.00,246.21 236.00,249.54 C236.00,255.06 240.25,257.56 242.71,253.50 ZM 324.73 204.86 C329.19,203.48 335.51,196.01 336.91,190.45 C338.10,185.72 337.38,173.00 335.92,173.00 C335.47,173.00 333.54,175.36 331.62,178.25 C327.18,184.94 322.27,189.69 321.10,188.44 C320.57,187.88 321.58,184.70 323.60,180.58 C325.47,176.78 326.83,173.50 326.62,173.29 C326.41,173.08 324.95,174.66 323.37,176.81 C317.93,184.20 310.23,189.11 300.99,191.10 C297.05,191.94 296.15,192.47 296.97,193.46 C298.06,194.78 304.41,197.34 309.25,198.42 C313.32,199.33 312.62,200.58 306.86,202.65 L 301.72 204.50 L 305.48 205.55 C309.70,206.74 319.82,206.37 324.73,204.86 ZM 122.52 188.25 C122.13,187.29 120.50,181.15 118.89,174.60 C116.25,163.91 112.46,154.13 109.93,151.55 C108.27,149.85 108.86,167.22 110.64,172.57 C112.41,177.87 120.42,190.00 122.16,190.00 C122.76,190.00 122.92,189.25 122.52,188.25 ZM 193.10 177.85 C194.97,177.22 198.23,175.45 200.35,173.92 L 204.20 171.14 L 200.35 169.17 C198.23,168.09 192.03,164.01 186.56,160.10 C181.09,156.20 176.08,153.00 175.43,153.00 C174.14,153.00 172.49,156.64 171.51,161.65 C170.84,165.04 172.87,171.07 175.79,174.35 C179.57,178.60 186.65,180.03 193.10,177.85 ZM 297.27 177.94 C302.16,176.58 307.26,171.42 308.81,166.26 C310.31,161.24 308.59,153.00 306.04,153.00 C305.19,152.99 300.90,155.40 296.50,158.35 C292.10,161.30 285.18,165.83 281.12,168.42 C272.55,173.89 272.66,174.49 282.73,177.12 C290.80,179.22 292.34,179.31 297.27,177.94 ZM 128.55 147.26 C127.68,143.09 125.74,137.28 124.24,134.35 C121.62,129.25 102.80,108.00 100.91,108.00 C100.41,108.00 100.00,110.36 100.01,113.25 C100.02,120.37 103.17,126.61 111.87,136.79 C115.76,141.35 121.32,149.34 124.23,154.55 L 129.50 164.03 L 129.81 159.44 C129.98,156.92 129.41,151.44 128.55,147.26 ZM 271.47 158.22 C273.10,157.40 279.62,152.90 285.97,148.23 C299.70,138.11 304.61,135.71 311.64,135.71 C317.69,135.71 324.73,139.25 326.96,143.42 C328.81,146.88 329.63,146.67 330.30,142.54 C331.52,135.04 326.58,126.72 318.89,123.33 C315.10,121.66 315.02,121.53 317.21,120.68 C319.43,119.82 319.44,119.76 317.50,118.97 C315.73,118.24 315.81,118.13 318.19,118.07 C319.67,118.03 321.16,118.45 321.50,119.00 C321.84,119.55 323.22,120.00 324.57,120.00 L 327.02 120.00 L 324.43 117.10 C320.30,112.46 310.08,109.66 299.20,110.18 C291.60,110.54 289.30,111.11 282.61,114.29 C278.34,116.31 273.69,118.88 272.27,120.00 C270.85,121.12 269.49,121.83 269.24,121.58 C268.49,120.82 279.09,106.10 282.40,103.31 C287.89,98.68 298.91,94.00 304.34,94.00 C308.79,94.00 309.12,93.85 307.87,92.35 C306.16,90.28 300.55,87.87 298.81,88.45 C298.09,88.69 295.89,89.08 293.92,89.31 L 290.34 89.73 L 291.11 84.85 C291.82,80.39 294.84,74.62 297.45,72.75 C298.03,72.34 300.23,71.52 302.35,70.94 C306.15,69.88 306.17,69.85 304.35,67.78 C302.03,65.17 290.96,58.02 285.00,55.29 C271.47,49.10 249.72,45.38 233.30,46.46 C195.43,48.94 169.56,64.82 154.51,94.83 C150.44,102.95 146.72,113.05 147.50,113.83 C147.78,114.11 149.02,113.39 150.25,112.24 C154.63,108.14 161.10,107.25 169.25,109.62 C172.13,110.46 171.23,112.79 167.75,113.54 C160.96,115.00 154.81,119.81 151.35,126.35 C148.01,132.67 145.74,144.00 147.81,144.00 C148.26,144.00 149.95,142.59 151.56,140.88 C157.31,134.77 165.75,133.35 174.91,136.96 C177.65,138.04 184.59,142.31 190.33,146.45 C208.82,159.77 217.22,162.64 222.43,157.43 C224.48,155.38 224.48,147.83 222.43,143.86 C221.56,142.18 221.10,140.57 221.40,140.27 C222.43,139.23 229.12,145.20 231.86,149.59 C233.99,153.02 234.87,153.73 235.80,152.80 C236.46,152.14 237.00,150.43 237.00,148.99 C237.00,145.96 239.91,141.25 239.97,144.19 C239.99,145.13 241.01,147.06 242.25,148.50 L 244.50 151.11 L 249.00 146.39 L 253.50 141.66 L 254.18 147.09 C255.20,155.12 256.56,157.91 260.24,159.48 C263.72,160.97 266.69,160.63 271.47,158.22 ZM 352.92 151.93 C354.09,149.69 357.90,143.50 361.38,138.18 C368.50,127.31 374.00,116.92 374.00,114.33 C374.00,112.50 361.11,125.60 356.42,132.20 C352.88,137.19 348.12,156.00 350.40,156.00 C350.62,156.00 351.75,154.17 352.92,151.93 ZM 229.72 113.53 C227.65,112.74 223.92,110.63 221.44,108.85 C215.21,104.37 217.41,103.25 228.17,105.41 C235.37,106.87 237.09,106.88 245.36,105.55 C250.42,104.73 256.53,103.37 258.93,102.52 C261.34,101.67 263.48,101.14 263.68,101.34 C264.42,102.09 255.05,109.94 250.85,112.08 C245.37,114.88 235.07,115.58 229.72,113.53 ZM 200.00 110.04 C198.62,109.05 192.21,107.02 185.75,105.52 C170.91,102.09 169.79,99.05 183.35,99.01 C189.58,99.00 193.77,101.03 199.01,106.62 C203.56,111.49 203.98,112.90 200.00,110.04 Z" fill="rgba(0,0,0,1)"/>
</g>
</svg>