<svg xmlns="http://www.w3.org/2000/svg" width="502" height="497" viewBox="0 0 502 497">
<g>
<path d="M 275.61 456.28 C275.49,456.16 245.04,455.95 207.95,455.81 C170.85,455.67 120.70,455.31 96.50,455.00 C51.73,454.43 47.00,454.01 47.00,450.56 C47.00,448.43 49.65,447.30 56.50,446.52 C59.80,446.14 63.36,445.60 64.40,445.30 C66.25,444.78 66.29,443.24 65.65,387.63 C65.28,356.21 64.70,311.26 64.34,287.75 L 63.69 245.00 L 55.98 245.00 L 48.27 245.00 L 47.64 240.36 C47.29,237.81 47.00,231.36 47.00,226.02 L 47.00 216.32 L 59.75 214.64 C89.44,210.74 181.45,200.21 240.50,193.96 C256.45,192.27 272.60,190.45 276.38,189.93 L 283.27 188.97 L 293.88 194.58 C299.72,197.67 312.83,205.15 323.00,211.22 C333.17,217.28 343.83,223.61 346.67,225.28 C349.51,226.95 352.34,229.28 352.97,230.44 C353.60,231.62 353.97,235.63 353.80,239.53 L 353.50 246.50 L 349.50 247.37 C347.30,247.85 344.94,248.39 344.25,248.59 C343.32,248.85 343.00,253.01 343.00,265.01 L 343.00 281.08 L 349.75 284.12 C353.46,285.79 362.58,289.78 370.00,292.99 C417.33,313.45 437.26,322.94 449.17,330.68 C455.95,335.09 463.39,339.74 465.70,341.01 C468.02,342.28 470.13,343.90 470.41,344.62 C470.88,345.86 463.64,362.23 445.00,402.00 C440.49,411.62 436.56,420.34 436.26,421.36 C435.35,424.44 430.91,422.95 405.87,411.17 C373.48,395.92 345.05,383.00 343.92,383.00 C343.34,383.00 343.07,395.01 343.24,414.25 L 343.50 445.50 L 397.00 446.56 C426.42,447.14 451.29,447.98 452.25,448.42 C454.54,449.46 454.49,452.67 452.17,453.91 C451.17,454.45 448.13,455.17 445.42,455.51 C441.01,456.07 276.15,456.82 275.61,456.28 ZM 314.43 443.59 C314.09,442.23 312.62,437.61 311.16,433.31 L 308.50 425.50 L 299.75 425.21 L 291.00 424.92 L 290.99 428.71 C290.99,430.79 290.70,435.49 290.36,439.15 L 289.73 445.80 L 302.39 445.93 L 315.05 446.07 L 314.43 443.59 ZM 87.65 418.75 C86.27,361.31 85.70,252.00 86.78,252.00 C88.68,252.00 143.59,247.02 176.00,243.92 C212.64,240.40 236.99,238.21 249.10,237.34 L 257.70 236.72 L 258.34 273.11 C258.70,293.13 259.24,338.98 259.55,375.00 C259.86,411.02 260.32,441.51 260.58,442.75 C260.98,444.73 261.65,445.00 266.17,445.00 L 271.30 445.00 L 270.57 407.75 C270.17,387.26 269.49,337.98 269.07,298.23 C268.65,258.49 268.08,225.75 267.81,225.48 C267.34,225.01 262.17,225.44 231.00,228.56 C222.48,229.41 208.52,230.75 200.00,231.52 C191.48,232.30 167.40,234.52 146.50,236.46 C125.60,238.41 105.80,240.24 102.50,240.54 C99.20,240.83 92.05,241.48 86.61,241.98 C81.17,242.47 76.36,243.24 75.91,243.69 C75.07,244.53 76.56,411.15 77.61,432.75 L 78.20 445.00 L 83.24 445.00 L 88.28 445.00 L 87.65 418.75 ZM 136.00 437.00 L 136.00 429.00 L 126.25 429.02 C120.89,429.02 116.03,429.36 115.45,429.77 C113.96,430.81 110.61,442.57 111.43,443.89 C111.87,444.60 116.40,445.00 124.06,445.00 L 136.00 445.00 L 136.00 437.00 ZM 249.00 435.43 L 249.00 425.85 L 225.25 426.56 C212.19,426.94 194.75,427.54 186.50,427.88 L 171.50 428.50 L 170.94 436.00 C170.63,440.12 170.55,443.84 170.75,444.25 C170.95,444.66 188.64,445.00 210.06,445.00 L 249.00 445.00 L 249.00 435.43 ZM 177.75 409.34 L 249.00 406.56 L 249.00 385.34 C249.00,373.67 248.66,363.93 248.25,363.70 C247.84,363.47 237.15,363.87 224.50,364.59 C171.88,367.60 144.23,369.09 122.50,370.09 C109.85,370.68 99.19,371.46 98.81,371.83 C98.42,372.20 98.38,381.66 98.71,392.85 L 99.32 413.21 L 102.91 412.66 C104.88,412.37 138.56,410.87 177.75,409.34 ZM 401.91 377.74 C405.44,369.91 411.67,356.18 415.76,347.23 C419.85,338.29 422.98,330.38 422.70,329.66 C422.24,328.45 411.59,323.72 369.00,305.77 C359.92,301.95 345.75,295.97 337.50,292.49 C329.25,289.00 320.78,285.46 318.68,284.60 L 314.87 283.05 L 312.36 288.77 C310.98,291.92 307.60,299.21 304.85,304.96 C302.10,310.71 297.11,321.44 293.75,328.82 C286.70,344.29 285.82,341.87 301.00,348.81 C311.23,353.49 315.45,355.44 335.50,364.78 C342.65,368.11 355.65,374.04 364.39,377.97 C373.14,381.90 383.26,386.64 386.89,388.51 C390.53,390.38 393.95,391.92 394.50,391.94 C395.05,391.96 398.39,385.57 401.91,377.74 ZM 158.50 357.08 C177.20,355.97 205.07,354.36 220.43,353.51 C235.80,352.66 248.55,351.78 248.78,351.55 C249.01,351.32 248.87,341.40 248.47,329.50 L 247.73 307.87 L 239.12 308.46 C205.24,310.79 183.89,312.29 160.00,314.01 C144.88,315.10 125.49,316.43 116.92,316.96 C108.35,317.50 100.63,318.20 99.77,318.54 C97.25,319.50 96.99,322.43 97.67,341.89 L 98.32 360.29 L 111.41 359.70 C118.61,359.38 139.80,358.20 158.50,357.08 ZM 130.10 305.03 C144.62,303.95 166.62,302.38 179.00,301.55 C191.38,300.71 207.57,299.59 215.00,299.05 C222.43,298.51 232.89,297.78 238.25,297.42 L 248.00 296.76 L 248.00 291.40 L 248.00 286.04 L 243.75 286.50 C241.41,286.76 233.43,287.42 226.00,287.96 C218.57,288.51 203.73,289.64 193.00,290.48 C164.40,292.72 103.85,297.00 100.80,297.00 C98.52,297.00 98.09,297.52 97.51,300.96 C96.31,308.04 93.84,307.74 130.10,305.03 ZM 72.50 233.00 C77.45,232.47 86.22,231.57 92.00,231.00 C97.78,230.43 108.57,229.33 116.00,228.55 C134.28,226.64 223.55,217.59 249.24,215.05 C260.65,213.92 272.23,213.00 274.99,213.00 L 280.00 213.00 L 280.00 206.43 C280.00,200.66 279.79,199.92 278.25,200.35 C277.29,200.62 273.35,201.13 269.50,201.48 C258.56,202.48 172.80,211.98 170.00,212.50 C168.62,212.76 160.07,213.68 151.00,214.55 C135.53,216.02 119.61,217.87 76.75,223.17 L 59.00 225.37 L 59.00 229.68 C59.00,234.68 58.33,234.52 72.50,233.00 ZM 390.50 428.93 C371.23,420.30 366.50,417.67 366.50,415.61 C366.50,411.15 369.29,411.44 383.14,417.37 C402.63,425.72 406.50,427.98 406.50,431.00 C406.50,434.93 402.83,434.45 390.50,428.93 ZM 461.50 321.77 C460.40,321.13 449.38,315.81 437.00,309.95 C401.32,293.06 400.80,292.80 394.76,289.28 C391.61,287.43 388.56,285.05 387.99,283.98 C387.12,282.35 387.35,281.95 389.46,281.42 C391.40,280.93 400.04,284.66 427.74,297.92 C447.42,307.33 464.83,316.08 466.43,317.36 C471.40,321.33 467.20,325.10 461.50,321.77 ZM 416.00 266.14 C416.00,265.73 420.06,261.91 425.02,257.65 C439.70,245.03 445.77,235.83 451.04,218.20 C453.84,208.83 455.89,207.71 457.28,214.79 C458.39,220.38 455.26,233.03 450.84,240.83 C446.78,248.01 435.03,259.74 428.50,263.14 C423.52,265.74 416.00,267.54 416.00,266.14 ZM 379.01 258.51 C377.97,257.26 378.47,256.73 382.14,255.13 C395.25,249.44 398.80,247.60 404.51,243.53 C417.16,234.50 426.24,221.69 429.03,208.92 C430.20,203.52 429.92,192.60 428.45,186.74 C427.81,184.17 427.93,184.03 430.13,184.81 C433.50,185.99 436.93,193.44 437.63,201.07 C438.69,212.76 433.20,226.68 422.89,238.39 C416.81,245.29 402.43,253.84 390.06,257.90 C382.47,260.39 380.65,260.49 379.01,258.51 ZM 365.43 221.10 C355.64,217.58 322.72,199.58 318.70,195.55 C316.45,193.31 316.95,170.81 319.36,165.86 C324.32,155.65 332.62,150.00 342.68,150.00 L 348.72 150.00 L 351.98 142.25 C353.78,137.99 355.44,134.00 355.67,133.39 C356.05,132.41 345.71,126.16 325.10,114.89 C316.82,110.37 315.50,107.65 319.20,102.82 C323.29,97.46 376.99,43.83 382.99,39.09 C388.38,34.84 388.59,34.77 394.49,35.30 C404.06,36.16 440.50,51.78 443.46,56.29 C444.70,58.19 444.95,66.35 445.05,108.47 C445.19,166.41 446.17,161.54 434.50,160.65 C430.00,160.31 422.70,158.49 414.04,155.56 C406.64,153.05 400.01,151.00 399.32,151.00 C398.62,151.00 396.66,153.81 394.96,157.25 C393.26,160.69 390.92,164.50 389.77,165.73 L 387.68 167.96 L 390.27 170.00 C391.70,171.12 394.24,174.80 395.93,178.18 C402.08,190.48 398.76,203.04 387.54,209.98 C385.09,211.49 384.04,213.01 383.52,215.76 C383.14,217.82 382.12,220.29 381.26,221.25 C379.18,223.57 372.08,223.50 365.43,221.10 ZM 371.04 195.48 C374.28,193.80 378.00,187.46 378.00,183.60 C378.00,174.13 366.18,164.43 351.99,162.26 C341.35,160.64 335.24,163.22 331.25,171.02 C326.51,180.30 328.62,183.66 342.00,188.09 C347.23,189.82 354.20,192.52 357.50,194.10 C364.34,197.37 366.88,197.63 371.04,195.48 ZM 374.92 151.59 C377.62,148.71 377.12,146.46 373.05,143.26 C368.11,139.37 367.41,139.48 365.37,144.44 C364.34,146.94 363.16,148.99 362.75,149.00 C360.76,149.01 362.36,151.25 365.25,152.51 C369.94,154.55 372.35,154.32 374.92,151.59 ZM 426.93 62.00 C426.95,60.37 412.97,53.65 399.70,48.92 L 391.89 46.13 L 363.95 74.32 C348.58,89.82 336.00,102.81 336.00,103.18 C336.00,103.56 336.79,104.09 337.75,104.36 C350.44,107.94 368.95,114.31 378.97,118.53 C397.76,126.46 410.64,132.60 411.55,134.08 C412.25,135.21 426.85,66.75 426.93,62.00 ZM 55.36 187.57 C46.87,178.81 40.47,163.81 39.97,151.50 C39.55,141.17 39.99,137.00 41.50,137.00 C42.33,137.00 43.00,137.18 43.00,137.39 C43.00,139.74 46.57,155.97 48.19,161.00 C50.30,167.54 56.73,180.86 61.59,188.75 C63.92,192.53 64.01,193.00 62.41,193.00 C61.42,193.00 58.25,190.56 55.36,187.57 ZM 145.50 184.11 C132.85,179.33 114.18,172.36 104.02,168.62 C81.98,160.50 80.19,159.63 78.98,156.44 C77.85,153.47 76.40,157.61 105.42,81.00 C107.82,74.68 111.69,64.10 114.02,57.50 C116.35,50.90 119.03,44.68 119.98,43.67 C122.44,41.07 119.68,40.23 185.50,63.63 C197.05,67.73 208.73,71.90 211.45,72.89 C214.17,73.87 216.81,75.33 217.31,76.13 C217.94,77.13 215.46,84.92 209.21,101.54 C196.88,134.34 175.98,190.22 175.48,191.75 C174.63,194.30 167.94,192.59 145.50,184.11 ZM 168.84 177.25 C169.43,175.74 174.89,161.00 180.97,144.50 C187.05,128.00 193.18,111.35 194.60,107.50 C196.02,103.65 198.74,96.50 200.65,91.61 C202.55,86.71 203.75,82.40 203.31,82.01 C202.86,81.63 190.80,77.15 176.50,72.07 C162.20,66.98 145.42,60.99 139.21,58.75 C131.27,55.89 127.60,55.00 126.86,55.74 C125.18,57.42 91.00,147.67 91.00,150.42 C91.00,151.05 92.24,152.06 93.75,152.66 C102.35,156.11 125.20,164.75 136.00,168.64 C142.88,171.12 151.20,174.19 154.50,175.46 C161.31,178.07 166.20,179.80 167.13,179.92 C167.47,179.96 168.24,178.76 168.84,177.25 ZM 255.93 178.20 C242.17,170.89 235.50,166.39 235.18,164.21 C234.71,160.96 237.74,161.35 246.27,165.61 C259.99,172.46 265.14,176.00 264.81,178.35 C264.36,181.47 262.02,181.43 255.93,178.20 ZM 69.41 173.27 C66.29,170.15 61.02,157.60 59.42,149.47 C57.50,139.74 58.06,130.76 61.33,119.00 C63.86,109.89 66.89,103.16 69.42,101.07 C72.43,98.57 72.43,103.07 69.43,114.43 C66.88,124.07 66.51,127.19 66.57,138.50 C66.62,149.87 66.99,152.63 69.46,160.50 C73.91,174.70 73.90,177.76 69.41,173.27 ZM 279.24 168.39 C266.96,161.46 253.58,152.75 242.25,144.30 C236.70,140.16 235.00,138.31 235.00,136.44 C235.00,135.10 235.25,134.00 235.55,134.00 C236.86,134.00 243.44,137.91 256.50,146.45 C264.20,151.49 274.04,157.84 278.37,160.55 C282.70,163.27 287.88,166.93 289.87,168.67 C293.08,171.48 293.33,172.01 292.00,173.29 C290.68,174.57 289.13,173.97 279.24,168.39 ZM 282.96 119.45 C279.35,115.61 279.51,107.51 283.36,99.68 C288.39,89.43 302.52,77.68 313.22,74.85 C321.32,72.71 320.78,76.00 312.16,81.32 C298.81,89.56 290.17,102.14 289.06,114.93 C288.41,122.48 286.87,123.62 282.96,119.45 ZM 237.12 76.65 C236.05,75.36 236.46,74.68 239.75,72.31 C245.46,68.20 255.58,63.62 257.41,64.33 C258.30,64.67 259.00,66.08 259.00,67.53 C259.00,69.79 258.02,70.58 251.52,73.59 C242.08,77.95 238.78,78.65 237.12,76.65 ZM 218.37 58.53 C217.53,56.33 217.82,55.90 227.13,45.83 C237.19,34.96 240.81,32.41 243.47,34.35 C245.09,35.54 245.11,35.88 243.70,38.57 C241.90,42.00 236.07,47.71 227.05,54.88 C220.08,60.41 219.23,60.77 218.37,58.53 ZM 197.33 47.42 C196.31,44.76 197.77,32.34 199.49,29.01 C201.58,24.98 205.34,25.09 205.81,29.19 C206.14,32.08 202.45,45.69 200.77,47.75 C199.39,49.45 198.06,49.32 197.33,47.42 ZM 162.89 393.89 C156.95,391.70 157.33,384.50 163.54,381.55 C167.70,379.57 176.24,379.56 180.04,381.52 C185.48,384.33 185.14,391.21 179.44,393.59 C175.64,395.18 166.84,395.33 162.89,393.89 ZM 357.00 347.57 C352.18,345.79 339.09,339.16 335.77,336.82 C327.89,331.25 331.99,316.62 341.81,315.30 C350.72,314.10 375.37,326.59 378.06,333.66 C379.28,336.87 376.68,343.25 372.81,346.50 C369.43,349.35 363.01,349.79 357.00,347.57 ZM 368.00 337.47 C368.00,336.56 347.77,327.00 345.84,327.00 C342.21,327.00 344.15,328.62 353.25,333.22 C361.26,337.26 368.00,339.20 368.00,337.47 ZM 165.75 341.42 C157.13,338.73 155.81,332.22 163.11,328.44 C165.44,327.24 168.13,326.89 173.08,327.17 C181.45,327.65 184.25,329.65 183.80,334.85 C183.25,341.23 174.89,344.28 165.75,341.42 ZM 151.00 164.02 C127.19,155.46 104.49,146.07 104.20,144.68 C104.03,143.87 106.35,136.53 109.35,128.36 C118.49,103.48 131.66,69.01 132.24,68.42 C132.86,67.81 156.38,76.02 176.81,83.99 L 190.12 89.19 L 189.45 92.34 C189.08,94.08 186.86,100.68 184.51,107.00 C177.56,125.69 161.81,167.49 161.65,167.65 C161.57,167.73 156.77,166.10 151.00,164.02 ZM 155.66 150.75 C157.81,147.28 168.67,117.45 167.89,117.16 C166.48,116.64 129.99,141.45 130.00,142.93 C130.01,143.56 151.79,151.85 153.69,151.94 C154.35,151.97 155.23,151.44 155.66,150.75 ZM 125.55 132.50 C128.82,130.02 134.62,125.64 138.43,122.75 C142.24,119.86 152.11,113.00 160.36,107.50 C168.61,102.00 175.52,97.00 175.72,96.38 C176.20,94.89 139.67,81.00 138.46,82.21 C137.87,82.80 135.98,87.69 124.81,117.50 C117.62,136.67 117.52,137.00 118.68,137.00 C119.19,137.00 122.28,134.97 125.55,132.50 Z" fill="rgba(0,0,0,1)"/>
</g>
</svg>