<svg xmlns="http://www.w3.org/2000/svg" width="477" height="470" viewBox="0 0 477 470">
<g>
<path d="M 76.56 442.75 C76.94,441.51 78.05,438.92 79.02,437.00 C88.68,417.81 154.80,268.83 166.41,240.08 C169.48,232.46 169.50,232.28 167.25,231.64 C166.29,231.37 161.68,230.01 157.00,228.61 C152.32,227.21 142.43,225.11 135.00,223.95 C104.65,219.20 72.12,210.79 53.00,202.75 C31.62,193.76 21.29,183.20 23.56,172.67 C25.53,163.55 36.63,150.82 50.90,141.32 C69.14,129.18 105.37,112.69 129.72,105.45 L 138.95 102.71 L 141.82 96.60 C143.40,93.25 148.32,85.08 152.75,78.46 C167.45,56.53 185.20,42.72 209.00,34.71 C218.32,31.58 235.88,29.55 246.60,30.37 C264.07,31.71 283.76,38.95 298.45,49.43 C312.59,59.52 329.42,81.06 334.49,95.56 L 336.83 102.28 L 353.17 108.52 C389.69,122.46 407.58,130.94 426.97,143.48 C450.13,158.46 458.70,172.59 451.52,183.97 C442.74,197.87 400.17,213.72 346.79,222.96 C335.24,224.96 326.34,227.14 320.00,229.53 C314.77,231.49 309.91,233.30 309.18,233.55 C307.35,234.16 307.31,234.07 324.53,272.49 C343.38,314.55 359.98,351.16 380.99,397.00 C397.55,433.15 402.00,443.12 402.00,444.11 C402.00,444.60 397.96,445.00 393.03,445.00 L 384.06 445.00 L 380.44 437.25 C378.45,432.99 368.94,412.40 359.31,391.50 C349.68,370.60 338.85,347.20 335.24,339.50 C325.55,318.79 304.90,272.76 297.23,254.74 C292.03,242.52 290.18,239.11 289.01,239.59 C288.18,239.93 284.91,240.71 281.75,241.33 C277.89,242.09 276.00,242.94 276.00,243.92 C276.00,245.17 283.02,268.18 301.18,326.50 C308.35,349.51 313.99,369.44 314.00,371.75 C314.00,374.85 310.52,374.73 308.44,371.56 C303.48,363.97 276.39,282.60 268.44,251.38 L 266.62 244.26 L 255.56 244.76 C249.48,245.03 244.39,245.35 244.25,245.46 C244.11,245.58 243.77,267.23 243.49,293.58 C242.50,388.10 242.13,402.30 240.65,403.78 C239.50,404.93 239.06,404.91 237.81,403.66 C236.58,402.43 236.22,395.72 235.67,363.84 C235.30,342.75 235.00,307.64 235.00,285.81 C235.00,263.98 234.66,245.92 234.25,245.68 C233.84,245.43 228.80,245.07 223.05,244.87 L 212.60 244.50 L 208.26 259.00 C205.87,266.98 202.40,278.45 200.55,284.50 C198.70,290.55 194.62,304.05 191.48,314.50 C179.16,355.55 157.11,423.49 155.34,425.86 C153.46,428.38 150.44,426.04 150.73,422.29 C151.09,417.67 159.35,387.05 168.47,356.50 C173.06,341.10 179.61,319.05 183.01,307.50 C186.41,295.95 192.07,277.19 195.59,265.81 C199.12,254.42 202.00,244.45 202.00,243.64 C202.00,242.70 200.58,241.97 198.00,241.59 C184.88,239.66 186.19,239.51 184.60,243.17 C183.81,245.00 181.24,251.23 178.90,257.00 C174.27,268.42 149.23,325.08 130.50,366.50 C113.68,403.70 98.56,436.89 96.45,441.25 L 94.63 445.00 L 85.25 445.00 C75.98,445.00 75.87,444.97 76.56,442.75 ZM 262.42 229.50 C271.33,228.04 276.86,226.59 280.35,224.78 C282.10,223.87 282.09,223.75 280.01,222.29 C276.02,219.50 267.01,217.90 250.67,217.10 C226.02,215.90 203.48,217.83 196.47,221.76 C194.83,222.68 194.93,222.91 197.58,224.26 C201.27,226.14 212.33,228.90 220.35,229.94 C230.70,231.29 252.92,231.06 262.42,229.50 ZM 170.62 217.23 C171.23,216.83 172.04,215.51 172.42,214.30 C175.02,205.97 204.19,201.17 245.00,202.35 C256.83,202.69 270.10,203.63 274.50,204.43 C278.90,205.23 283.85,206.14 285.50,206.45 C288.16,206.94 288.92,206.47 292.21,202.30 C294.26,199.71 295.77,197.44 295.58,197.24 C294.54,196.21 272.50,193.02 259.00,191.95 C238.74,190.34 204.91,191.28 188.00,193.93 C174.85,195.98 159.03,200.75 155.87,203.62 C151.74,207.36 154.99,212.44 164.00,216.33 C168.09,218.09 169.10,218.23 170.62,217.23 ZM 318.14 215.98 C320.14,215.42 322.33,214.30 323.00,213.50 C324.51,211.68 323.51,207.13 321.44,206.34 C319.09,205.44 305.00,211.18 305.00,213.03 C305.00,216.88 310.48,218.11 318.14,215.98 ZM 101.50 195.98 C100.40,195.49 94.72,193.26 88.88,191.02 C77.85,186.79 75.00,184.79 75.00,181.25 C75.00,178.70 77.49,177.80 92.00,175.07 C109.89,171.71 129.56,169.16 153.50,167.08 C213.85,161.84 252.56,161.73 337.50,166.56 C352.90,167.43 368.20,168.00 371.50,167.82 L 377.50 167.50 L 372.50 166.26 C365.55,164.53 332.76,160.40 309.74,158.34 C280.96,155.78 180.76,155.75 152.50,158.31 C115.19,161.67 77.70,167.79 58.70,173.61 C54.19,174.99 49.49,176.37 48.25,176.67 C47.01,176.98 46.00,177.57 46.00,177.98 C46.00,179.53 64.55,187.08 78.50,191.19 C91.86,195.14 106.44,198.17 101.50,195.98 ZM 54.96 161.56 C75.64,156.55 108.52,150.95 128.50,149.02 C173.45,144.69 175.75,144.60 236.25,144.55 C269.11,144.52 296.00,144.40 296.00,144.28 C296.00,144.15 295.01,142.02 293.80,139.53 L 291.60 135.00 L 286.05 135.00 C278.37,135.00 273.60,132.52 273.19,128.31 C272.86,124.94 275.35,119.00 277.08,119.00 C279.38,119.00 276.48,116.77 270.23,113.72 L 263.61 110.50 L 274.05 110.18 C286.36,109.79 309.59,111.52 319.50,113.56 C329.74,115.66 331.39,115.24 324.00,112.40 C298.68,102.68 276.04,99.03 240.89,99.01 C193.62,98.98 146.94,108.85 103.37,128.07 C73.22,141.38 52.19,153.04 45.05,160.43 C40.86,164.78 41.41,164.84 54.96,161.56 ZM 352.00 138.54 C352.00,135.46 348.83,132.35 343.00,129.72 C332.97,125.18 328.90,125.87 332.57,131.47 C334.47,134.37 337.81,136.33 345.45,139.06 C352.04,141.40 352.00,141.41 352.00,138.54 ZM 169.50 95.01 L 176.50 93.76 L 180.00 87.72 C184.93,79.22 195.51,67.28 202.54,62.31 C214.44,53.88 234.91,47.77 251.72,47.63 C258.04,47.57 260.41,47.25 259.26,46.60 C255.84,44.69 245.23,43.07 235.91,43.04 C214.78,42.96 195.36,51.56 178.43,68.48 C171.56,75.35 160.02,91.20 158.58,95.75 C157.94,97.78 158.10,97.92 160.18,97.13 C161.46,96.65 165.65,95.69 169.50,95.01 ZM 192.33 443.41 C191.54,441.37 193.02,428.97 198.58,391.00 C207.70,328.60 211.15,308.45 213.03,306.57 C214.35,305.25 214.29,316.57 212.91,328.81 C209.16,362.06 203.51,406.15 200.97,422.09 C199.34,432.31 198.00,440.94 198.00,441.27 C198.00,442.22 194.94,445.00 193.90,445.00 C193.37,445.00 192.66,444.28 192.33,443.41 ZM 281.69 443.25 C278.23,437.17 263.00,324.26 263.00,304.65 C263.00,300.92 265.04,304.41 266.48,310.60 C269.58,323.94 280.72,394.35 286.50,437.18 C286.85,439.72 286.51,441.34 285.43,442.43 C283.72,444.13 282.36,444.43 281.69,443.25 ZM 326.17 420.25 C320.64,409.19 316.64,393.96 318.89,392.57 C320.39,391.64 323.42,396.96 327.11,407.00 C331.01,417.62 331.96,424.00 329.65,424.00 C328.77,424.00 327.20,422.31 326.17,420.25 ZM 52.04 395.09 C50.35,391.02 52.06,388.00 56.06,388.00 C59.90,388.00 61.92,391.68 60.18,395.50 C58.48,399.24 53.66,399.00 52.04,395.09 ZM 397.56 349.78 C395.51,346.85 395.59,344.68 397.83,342.65 C399.93,340.75 402.29,340.55 405.07,342.04 C407.20,343.17 407.62,346.97 405.96,350.07 C404.50,352.80 399.55,352.63 397.56,349.78 ZM 76.55 334.97 C75.31,328.81 75.04,328.39 70.84,326.03 L 66.69 323.70 L 70.26 321.87 C72.87,320.53 74.28,318.84 75.54,315.52 C76.49,313.04 77.64,311.00 78.10,311.00 C78.55,311.00 79.47,312.83 80.14,315.07 C81.35,319.11 85.02,323.00 87.63,323.00 C88.39,323.00 89.00,323.45 89.00,324.00 C89.00,324.55 88.15,325.00 87.11,325.00 C84.13,325.00 81.24,328.08 79.17,333.47 L 77.26 338.44 L 76.55 334.97 ZM 373.61 294.89 C373.37,294.13 372.39,290.43 371.42,286.69 C369.85,280.59 369.29,279.68 366.08,278.04 C364.10,277.03 360.58,275.69 358.24,275.07 C355.91,274.44 354.00,273.51 354.00,273.01 C354.00,272.51 356.59,271.32 359.75,270.36 C367.47,268.03 369.60,265.89 372.19,257.83 C373.40,254.07 374.71,251.00 375.10,251.00 C375.49,251.00 376.75,254.10 377.89,257.88 C380.56,266.67 382.19,268.46 389.32,270.46 C395.95,272.32 396.32,273.99 390.43,275.39 C382.49,277.26 380.71,278.96 377.99,287.23 C375.31,295.37 374.31,297.12 373.61,294.89 ZM 111.65 273.17 C108.18,269.34 110.23,265.00 115.50,265.00 C119.28,265.00 121.00,266.56 121.00,270.00 C121.00,271.43 120.46,273.14 119.80,273.80 C118.01,275.59 113.53,275.25 111.65,273.17 ZM 60.20 257.80 C58.49,256.09 58.72,250.43 60.57,248.57 C62.74,246.41 66.60,246.60 69.00,249.00 C71.40,251.40 71.54,253.79 69.44,256.78 C67.71,259.26 62.26,259.86 60.20,257.80 ZM 421.90 257.12 C419.83,255.44 419.71,254.94 420.79,252.55 C422.50,248.81 427.04,249.28 428.46,253.35 C429.29,255.71 429.13,256.43 427.54,257.60 C425.06,259.40 424.68,259.37 421.90,257.12 ZM 44.25 115.97 C40.24,114.36 42.34,106.00 46.76,106.00 C50.22,106.00 52.45,113.15 49.80,115.80 C48.41,117.19 47.36,117.22 44.25,115.97 ZM 365.57 95.43 C363.49,93.35 363.59,91.68 365.93,89.56 C368.42,87.31 371.79,88.33 372.61,91.58 C373.76,96.16 368.94,98.80 365.57,95.43 ZM 408.90 89.42 C406.73,79.77 404.33,77.43 392.50,73.45 C390.91,72.92 391.61,72.39 395.94,70.89 C403.15,68.38 405.35,66.11 407.53,58.92 C408.53,55.61 409.64,52.72 410.00,52.50 C410.37,52.27 411.67,54.95 412.90,58.44 C415.56,65.97 417.73,68.18 424.75,70.46 C427.64,71.39 430.00,72.46 429.99,72.83 C429.99,73.20 427.30,74.34 424.02,75.36 C420.75,76.38 417.53,77.86 416.88,78.65 C416.23,79.43 414.94,83.30 414.01,87.23 C413.09,91.17 411.84,94.55 411.25,94.75 C410.65,94.95 409.61,92.59 408.90,89.42 ZM 79.58 78.75 C75.76,60.15 73.94,57.80 61.69,55.58 C56.42,54.62 57.47,52.91 64.61,50.81 C72.47,48.50 75.58,45.13 78.39,35.92 C79.62,31.91 81.07,28.48 81.62,28.29 C82.16,28.11 83.21,30.33 83.94,33.23 C86.76,44.42 90.94,49.42 98.40,50.54 C100.75,50.89 103.25,51.54 103.96,51.98 C105.60,52.99 104.43,55.00 102.19,55.01 C101.26,55.02 98.15,56.12 95.27,57.46 C89.63,60.08 86.74,63.70 84.86,70.50 C82.41,79.38 81.81,81.00 80.94,81.00 C80.44,81.00 79.83,79.99 79.58,78.75 ZM 142.98 48.47 C142.00,47.30 141.97,46.36 142.83,44.47 C144.74,40.29 150.00,41.85 150.00,46.59 C150.00,49.98 145.28,51.24 142.98,48.47 ZM 329.00 40.00 C324.16,35.16 329.11,28.56 335.25,31.66 C338.79,33.45 339.07,38.14 335.78,40.44 C332.84,42.50 331.41,42.41 329.00,40.00 ZM 124.57 138.43 C119.94,133.80 125.85,127.70 139.52,122.99 C146.23,120.68 163.81,117.00 168.11,117.00 C171.38,117.00 171.99,118.55 169.08,119.48 C168.02,119.81 162.06,123.90 155.83,128.56 C144.00,137.41 138.25,140.00 130.39,140.00 C127.86,140.00 125.51,139.36 124.57,138.43 ZM 190.28 133.05 C186.12,130.48 185.23,127.01 187.67,122.83 C190.22,118.46 194.84,117.27 199.82,119.70 C203.23,121.37 203.50,121.82 203.50,125.89 C203.50,129.43 203.01,130.64 201.00,132.10 C197.01,134.99 193.86,135.27 190.28,133.05 Z" fill="rgba(0,0,0,1)"/>
</g>
</svg>